<?xml version="1.0" encoding="utf-8"?>
<!-- Generator: Adobe Illustrator 21.0.0, SVG Export Plug-In . SVG Version: 6.00 Build 0)  -->
<svg version="1.1" id="Layer_1" xmlns="http://www.w3.org/2000/svg" xmlns:xlink="http://www.w3.org/1999/xlink" x="0px" y="0px"
	 viewBox="0 0 76 100" style="enable-background:new 0 0 76 100;" xml:space="preserve">
<style type="text/css">
	.st0{fill:#231F20;}
	.st1{font-family:'Abel-Regular';}
	.st2{font-size:6.3532px;}
	.st3{letter-spacing:0.9;}
	.st4{font-family:'Comfortaa-Medium';}
	.st5{font-size:10.8561px;}
</style>
<g id="Logo">
	<path class="st0" d="M49.3,5.6C46,4.6,42.5,4,38.8,4s-7.2,0.6-10.6,1.7c-3.5,1.1-6.8,2.8-9.7,5c-0.7,0.5-1.4,1.1-2.1,1.7
		c-1.7,1.5-3.3,3.2-4.7,5c-0.4,0.5-0.8,1.1-1.2,1.7c-1.1,1.6-2,3.2-2.8,5C7.5,24.5,7.3,25,7,25.6c-0.6,1.6-1.1,3.3-1.5,5
		c-0.1,0.6-0.2,1.1-0.3,1.7c-0.3,1.6-0.4,3.3-0.5,5c0,0.3,0,0.6,0,0.8c0,0.3,0,0.6,0,0.8c0,1.7,0.2,3.4,0.5,5
		c0.1,0.6,0.2,1.1,0.3,1.7c0.4,1.7,0.9,3.4,1.5,5c0.2,0.6,0.5,1.1,0.7,1.7c0.8,1.7,1.7,3.4,2.8,5c0.4,0.6,0.8,1.1,1.2,1.7
		c1.4,1.8,3,3.5,4.7,5c0.7,0.6,1.4,1.1,2.1,1.7c2.9,2.1,6.2,3.8,9.7,5c3.3,1.1,6.9,1.7,10.6,1.7h31.8v-1.7H38.8
		c-6.3,0-12.2-1.8-17.2-5c-0.8-0.5-1.6-1.1-2.4-1.7c-1.9-1.5-3.7-3.1-5.2-5c-0.5-0.5-0.9-1.1-1.3-1.7c-1.1-1.6-2.2-3.2-3-5
		c-0.3-0.5-0.5-1.1-0.8-1.7c-0.7-1.6-1.2-3.3-1.6-5C7.1,45,7,44.4,6.9,43.9c-0.3-1.6-0.5-3.3-0.5-5c0-0.3,0-0.6,0-0.8
		c0-0.3,0-0.6,0-0.8c0-1.7,0.2-3.4,0.5-5c0.1-0.6,0.2-1.1,0.3-1.7c0.4-1.7,1-3.4,1.6-5C9,25,9.3,24.5,9.6,23.9c0.9-1.8,1.9-3.4,3-5
		c0.4-0.6,0.9-1.1,1.3-1.7c1.5-1.8,3.3-3.5,5.2-5c0.8-0.6,1.6-1.2,2.4-1.7c5-3.2,10.9-5,17.2-5s12.2,1.8,17.2,5h0.5L57,9.2
		C54.7,7.8,52.1,6.5,49.3,5.6z"/>
	<path class="st0" d="M48.2,12.3c-2.9-1.1-6.1-1.7-9.4-1.7s-6.5,0.6-9.4,1.7c-3.1,1.1-6,2.8-8.4,5c-0.6,0.5-1.2,1.1-1.8,1.7
		c-1.5,1.5-2.8,3.2-3.8,5c-0.3,0.5-0.6,1.1-0.9,1.7c-0.8,1.6-1.5,3.2-2,5c-0.2,0.5-0.3,1.1-0.4,1.7c-0.4,1.6-0.6,3.3-0.6,5
		c0,0.3,0,0.6,0,0.8c0,0.3,0,0.6,0,0.8c0.1,1.7,0.3,3.4,0.6,5c0.1,0.6,0.3,1.1,0.4,1.7c0.5,1.7,1.2,3.4,2,5c0.3,0.6,0.6,1.1,0.9,1.7
		c1.1,1.8,2.4,3.5,3.8,5c0.6,0.6,1.2,1.1,1.8,1.7c2.5,2.1,5.3,3.8,8.4,5c2.9,1.1,6.1,1.7,9.4,1.7h31.8v-1.7H38.8
		c-5.7,0-10.9-1.8-15.2-5c-0.7-0.5-1.4-1.1-2.1-1.7c-1.6-1.5-3.1-3.1-4.3-5c-0.4-0.5-0.7-1.1-1-1.7c-0.9-1.6-1.6-3.2-2.1-5
		c-0.2-0.5-0.3-1.1-0.5-1.7c-0.4-1.6-0.6-3.3-0.6-5c0-0.3,0-0.6,0-0.8c0-0.3,0-0.6,0-0.8c0.1-1.7,0.3-3.4,0.6-5
		c0.1-0.6,0.3-1.1,0.5-1.7c0.5-1.7,1.2-3.4,2.1-5c0.3-0.6,0.7-1.1,1-1.7c1.2-1.8,2.6-3.5,4.3-5c0.7-0.6,1.3-1.2,2.1-1.7
		c4.3-3.1,9.5-5,15.2-5c5.6,0,10.7,1.8,14.9,4.8l0.7-1.6C52.5,14.2,50.4,13.1,48.2,12.3z"/>
	<path class="st0" d="M46.9,18.9c-2.5-1.1-5.3-1.7-8.2-1.7s-5.7,0.6-8.2,1.7c-2.7,1.2-5.1,2.9-7.1,5c-0.5,0.5-1,1.1-1.4,1.7
		c-1.1,1.5-2.1,3.2-2.8,5c-0.2,0.5-0.4,1.1-0.6,1.7c-0.5,1.6-0.7,3.3-0.8,5c0,0.3,0,0.6,0,0.8c0,0.3,0,0.6,0,0.8
		c0.1,1.7,0.3,3.4,0.8,5c0.2,0.6,0.4,1.1,0.6,1.7c0.7,1.8,1.6,3.5,2.8,5c0.4,0.6,0.9,1.1,1.4,1.7c2,2.1,4.4,3.8,7.1,5
		c2.5,1.1,5.3,1.7,8.2,1.7h31.8v-1.7H38.8c-4.9,0-9.5-1.9-12.9-5c-0.6-0.5-1.1-1.1-1.6-1.7c-1.3-1.5-2.3-3.2-3.1-5
		c-0.2-0.5-0.4-1.1-0.6-1.7c-0.5-1.6-0.8-3.2-0.9-5c0-0.3,0-0.6,0-0.8c0-0.3,0-0.6,0-0.8c0.1-1.7,0.4-3.4,0.9-5
		c0.2-0.6,0.4-1.1,0.6-1.7c0.8-1.8,1.8-3.5,3.1-5c0.5-0.6,1.1-1.1,1.6-1.7c3.4-3.1,7.9-5,12.9-5c4.6,0,8.9,1.6,12.2,4.4l0.7-1.6
		C50.2,20.6,48.6,19.7,46.9,18.9z"/>
	<path class="st0" d="M45.4,25.6c-2-1.1-4.3-1.7-6.7-1.7S34,24.5,32,25.6c-2.2,1.2-4,2.9-5.3,5c-0.3,0.5-0.6,1.1-0.9,1.7
		c-0.7,1.5-1.1,3.2-1.2,5c0,0.3,0,0.6,0,0.8c0,0.3,0,0.6,0,0.8c0.1,1.8,0.5,3.4,1.2,5c0.3,0.6,0.6,1.1,0.9,1.7
		c1.3,2.1,3.1,3.8,5.3,5c2,1.1,4.3,1.7,6.7,1.7h31.8v-1.7H38.8c-4.1,0-7.7-2-10-5c-0.4-0.5-0.8-1.1-1.1-1.7c-0.8-1.5-1.3-3.2-1.4-5
		c0-0.3,0-0.6,0-0.8c0-0.3,0-0.6,0-0.8c0.1-1.8,0.6-3.5,1.4-5c0.3-0.6,0.7-1.1,1.1-1.7c2.3-3,5.9-5,10-5c3.7,0,7.1,1.6,9.3,4.2
		l0.7-1.7C47.9,27.1,46.7,26.3,45.4,25.6z"/>
</g>
<g id="Name_and_tagline">
	<text transform="matrix(1.1328 0 0 1 17.8 96.1367)" class="st1 st2 st3">being creative</text>
	<text transform="matrix(1 0 0 1 16.8039 86.999)" class="st4 st5">InCubical</text>
</g>
</svg>
